<svg width="138" height="36" viewBox="0 0 138 36" fill="none" xmlns="http://www.w3.org/2000/svg">
<g clip-path="url(#clip0_5842_1095)">
<path d="M37.9607 11.4976H41.3291L44.0022 20.9927L47.2034 11.4976H50.5717L53.7729 20.9927L56.446 11.4976H59.8144L55.4362 25.6487H52.3208L48.9085 15.9254L45.4763 25.6487H42.3389L37.9607 11.4976Z" fill="black"/>
<path d="M68.1313 22.2908L70.0894 24.2475C69.1213 25.2355 67.2468 25.8942 65.6474 25.8942C62.4044 25.8942 59.8787 23.5673 59.8787 20.291C59.8787 17.0148 62.301 14.7502 65.4801 14.7502C68.8903 14.7502 70.8924 17.2838 70.8924 21.3006H63.038C63.3966 22.4544 64.3427 23.2379 65.6276 23.2379C66.49 23.2379 67.5439 22.8462 68.1335 22.2908M63.0798 19.1394H67.9443C67.6495 18.0889 66.8486 17.4087 65.6078 17.4087C64.4505 17.4087 63.4802 18.0674 63.082 19.1394" fill="black"/>
<path d="M84.7022 20.3124C84.7022 23.5887 82.5967 25.8963 79.6903 25.8963C78.1745 25.8963 76.9116 25.2569 76.0469 24.144V25.6487H72.9734V11.25H76.0469V16.483C76.9094 15.3916 78.1745 14.7523 79.6903 14.7523C82.5967 14.7523 84.7022 17.0599 84.7022 20.3146M81.7122 20.3146C81.7122 18.543 80.5132 17.2859 78.8059 17.2859C77.312 17.2859 76.2164 18.3557 76.0469 19.9013V20.7257C76.2164 22.2907 77.3098 23.3627 78.8059 23.3627C80.511 23.3627 81.7122 22.1055 81.7122 20.3146Z" fill="black"/>
<path d="M94.5124 22.2905L96.4705 24.2472C95.5024 25.2353 93.6279 25.894 92.0285 25.894C88.7855 25.894 86.2598 23.567 86.2598 20.2908C86.2598 17.0145 88.6821 14.75 91.8612 14.75C95.2714 14.75 97.2735 17.2836 97.2735 21.3003H89.4191C89.7777 22.4541 90.7238 23.2377 92.0087 23.2377C92.8711 23.2377 93.925 22.8459 94.5146 22.2905M89.4609 19.1391H94.3254C94.0306 18.0887 93.2297 17.4085 91.9889 17.4085C90.8316 17.4085 89.8613 18.0671 89.4631 19.1391" fill="black"/>
<path d="M106.303 25.6486L103.945 22.4348L101.564 25.6486H98.3232L102.323 20.2305L98.4905 14.9976H101.817L103.986 17.966L106.175 14.9976H109.418L105.608 20.1681L109.608 25.6486H106.303Z" fill="black"/>
<path d="M122.997 20.3123C122.997 23.5886 120.892 25.8961 117.986 25.8961C116.47 25.8961 115.207 25.2568 114.342 24.1439V29.1918H111.269V14.9975H114.342V16.4807C115.205 15.3893 116.47 14.75 117.986 14.75C120.892 14.75 122.997 17.0576 122.997 20.3123ZM120.007 20.3123C120.007 18.5407 118.808 17.2836 117.101 17.2836C115.607 17.2836 114.512 18.3534 114.342 19.899V20.7234C114.512 22.2884 115.605 23.3604 117.101 23.3604C118.806 23.3604 120.007 22.1033 120.007 20.3123Z" fill="black"/>
<path d="M133.945 25.6487L130.638 21.0551H128.343V25.6487H125.248V11.4976H131.753C134.891 11.4976 137.207 13.4758 137.207 16.2763C137.207 18.3773 135.903 20.0261 133.923 20.7042L137.48 25.6487H133.942H133.945ZM128.343 18.2739H131.417C132.955 18.2739 134.006 17.4904 134.006 16.2763C134.006 15.0623 132.952 14.2787 131.417 14.2787H128.343V18.2761V18.2739Z" fill="#E4282B"/>
<path d="M3.09116 11.4283L0 9.68896V26.1972L3.09116 24.4579C3.72479 24.1027 4.11861 23.4376 4.11861 22.7208V13.1654C4.11861 12.4507 3.72479 11.7856 3.09116 11.4283" fill="#B0B4B6"/>
<path d="M15.6058 0L1.1687 8.15188L4.26206 9.90194C4.89349 10.2593 5.67893 10.2593 6.31036 9.90194L15.6058 4.64745L24.9013 9.90194C25.2159 10.0806 25.5701 10.1689 25.9244 10.1689C26.2786 10.1689 26.6328 10.0806 26.9496 9.90194L30.043 8.15188L15.6058 0Z" fill="black"/>
<path d="M28.1436 11.4302C27.5122 11.7875 27.1183 12.4527 27.1183 13.1652V25.5189L18.0055 30.7734C17.3718 31.1286 16.978 31.7959 16.978 32.5084V35.9977L31.2282 27.8459V9.68872L28.1436 11.428V11.4302Z" fill="#E4282B"/>
<path d="M14.2283 30.6916L5.91851 25.9925C5.28707 25.6352 4.50383 25.6374 3.8746 25.9925L0.785645 27.734L15.2536 35.916L15.2118 32.4352C15.2118 31.7206 14.862 31.0468 14.2305 30.6895" fill="#A32322"/>
</g>
<defs>
<clipPath id="clip0_5842_1095">
<rect width="137.483" height="36" fill="white"/>
</clipPath>
</defs>
</svg>
